# xmcd
#
# Track frame offsets:
#   150
#   15762
#   33712
#   57236
#   70668
#   89581
#   105660
#   121178
#   138309
#   149334
#   162836
#   192441
#   207513
#   224127
#   238868
#   251977
#   266621
#   279749
#   299913
#   312963
#
# Disc length: 4385 seconds
#
# Revision: 0
# Processed by: cddbd v1.5.1PL0 Copyright (c) Steve Scherf et al.
# Submitted via: BirdCage ASPI Rip 3.0.1
#
DISCID=46111f14
DTITLE=Marianne Weber - 10 jaar
DYEAR=2004
DGENRE=Folk
TTITLE0=Overture
TTITLE1=Schrijf me nooit geen mooie brieven meer
TTITLE2=Ik leef allen voor jou
TTITLE3=Weet je nog van toen
TTITLE4=Als je gaat
TTITLE5=Straks valt de nacht
TTITLE6=In de sterren staat geschreven
TTITLE7=Jou vergeet ik niet
TTITLE8=Samen met jou
TTITLE9=Al deze rozen mag je houden
TTITLE10=Ik doe wat ik wil
TTITLE11=De jantjes
TTITLE12=Morgen wordt het anders
TTITLE13=Kind van mij
TTITLE14=Die oude accordeon
TTITLE15=Sneeuwwitte vredesduif
TTITLE16=Toch hou ik zo veel van jou
TTITLE17=Later zul je aan me denken
TTITLE18=Ik ben een vriend voor altijd
TTITLE19=Ik weet dat er een ander is
EXTD=
EXTT0=
EXTT1=
EXTT2=
EXTT3=
EXTT4=
EXTT5=
EXTT6=
EXTT7=
EXTT8=
EXTT9=
EXTT10=
EXTT11=
EXTT12=
EXTT13=
EXTT14=
EXTT15=
EXTT16=
EXTT17=
EXTT18=
EXTT19=
PLAYORDER=
